<svg width="94" height="28" viewBox="0 0 94 28" fill="none" xmlns="http://www.w3.org/2000/svg">
<g id="Group 4">
<path id="&#228;&#184;&#131;" d="M37.521 25.3926V26.0046H38.1331H54.3457H54.9578V25.3926V21.742V21.1299H54.3457H42.5567V13.1349L55.6579 10.2609L56.1389 10.1554V9.66308V5.98571V5.2248L55.3956 5.38784L42.5567 8.20428V1.31519V0.703102H41.9447H38.1331H37.521V1.31519V9.30551L30.7002 10.8101L30.2199 10.916V11.4078V15.0852V15.847L30.9639 15.6829L37.521 14.2365V25.3926Z" fill="white" stroke="white" stroke-width="1.22417"/>
<path id="&#229;&#133;&#131;" d="M15.4185 25.2584V25.8704H16.0306H26.3648H26.9769V25.2584V21.6884V21.0763H26.3648H20.1321V14.4089H25.8548H26.4669V13.7968V10.3341V9.72206H25.8548H2.18006H1.56797V10.3341V13.7968V14.4089H2.18006H7.47617C7.10895 17.6762 5.17539 20.1363 1.74252 21.2964L1.32639 21.437V21.8762V25.6073V26.4216L2.10861 26.1953C5.3644 25.2532 7.83693 23.6397 9.52239 21.5001C11.0935 19.5055 11.9536 17.0883 12.1533 14.4089H15.4185V25.2584ZM3.60797 5.5294V6.14149H4.22006H23.8148H24.4269V5.5294V2.06677V1.45469H23.8148H4.22006H3.60797V2.06677V5.5294Z" fill="white" stroke="white" stroke-width="1.22417"/>
<g id="AI">
<path d="M78.0108 25.7178L76.1414 18.7338H68.2404L66.3709 25.7178H60.1982L67.3586 1.02704H77.0585L84.2188 25.7178H78.0108ZM69.3691 14.5011H75.0127L72.2262 4.16629H72.1556L69.3691 14.5011Z" fill="white"/>
<path d="M87.2032 25.7178V1.02704H93.0231V25.7178H87.2032Z" fill="white"/>
</g>
</g>
</svg>
